HIERARCHY
ROOT hip
{
	OFFSET 0.000000 0.000000 0.000000 
	CHANNELS 6 Xposition Yposition Zposition Xrotation Zrotation Yrotation
	JOINT abdomen
	{
		OFFSET 0.000000 3.402643 0.000000 
		CHANNELS 3 Xrotation Zrotation Yrotation
		JOINT chest
		{
			OFFSET 0.000000 8.438565 -0.680529 
			CHANNELS 3 Xrotation Zrotation Yrotation
			JOINT neck
			{
				OFFSET 0.000000 10.207942 -0.272212 
				CHANNELS 3 Xrotation Zrotation Yrotation
				JOINT head
				{
					OFFSET 0.000000 3.130431 0.000000 
					CHANNELS 3 Xrotation Zrotation Yrotation
					End Site
					{
						OFFSET 0.000000 3.130435 0.000000 
					}
				}
			}
			JOINT lCollar
			{
				OFFSET 3.470700 6.669187 -0.816635 
				CHANNELS 3 Yrotation Zrotation Xrotation
				JOINT lShldr
				{
					OFFSET 3.198488 0.000000 0.000000 
					CHANNELS 3 Zrotation Yrotation Xrotation
					JOINT lForeArm
					{
						OFFSET 10.139888 0.000000 0.000000 
						CHANNELS 3 Yrotation Zrotation Xrotation
						JOINT lHand
						{
							OFFSET 8.370511 0.000000 0.000000 
							CHANNELS 3 Zrotation Yrotation Xrotation
							End Site
							{
								OFFSET 4.083176 0.000000 0.000000 
							}
						}
					}
				}
			}
			JOINT rCollar
			{
				OFFSET -3.470700 6.669187 -0.816635 
				CHANNELS 3 Yrotation Zrotation Xrotation
				JOINT rShldr
				{
					OFFSET -3.198488 0.000000 0.000000 
					CHANNELS 3 Zrotation Yrotation Xrotation
					JOINT rForeArm
					{
						OFFSET -10.139888 0.000000 0.000000 
						CHANNELS 3 Yrotation Zrotation Xrotation
						JOINT rHand
						{
							OFFSET -8.370511 0.000000 0.000000 
							CHANNELS 3 Zrotation Yrotation Xrotation
							End Site
							{
								OFFSET -4.083176 0.000000 0.000000 
							}
						}
					}
				}
			}
		}
	}
	JOINT lThigh
	{
		OFFSET 5.308129 -1.633274 1.361059 
		CHANNELS 3 Xrotation Zrotation Yrotation
		JOINT lShin
		{
			OFFSET -2.041588 -20.007561 0.000000 
			CHANNELS 3 Xrotation Zrotation Yrotation
			JOINT lFoot
			{
				OFFSET 0.000000 -19.190928 -1.224953 
				CHANNELS 3 Xrotation Yrotation Zrotation
				End Site
				{
					OFFSET 0.000000 -2.449906 4.627600 
				}
			}
		}
	}
	JOINT rThigh
	{
		OFFSET -5.308129 -1.633274 1.361059 
		CHANNELS 3 Xrotation Zrotation Yrotation
		JOINT rShin
		{
			OFFSET 2.041588 -20.007561 0.000000 
			CHANNELS 3 Xrotation Zrotation Yrotation
			JOINT rFoot
			{
				OFFSET 0.000000 -19.190928 -1.224953 
				CHANNELS 3 Xrotation Yrotation Zrotation
				End Site
				{
					OFFSET 0.000000 -2.449906 4.627600 
				}
			}
		}
	}
}
MOTION
Frames: 10
Frame Time: 0.016667
7.233706 42.739738 -0.218475 -2.108340 -7.592570 1.498240 -18.502300 -2.771890 9.059460 19.623301 -6.258940 3.987870 2.928920 14.835500 -8.970940 8.956900 9.603240 -3.274010 2.000000 -2.000000 0.000000 108.113998 -168.766998 7.214160 48.896999 -0.304729 0.103075 0.044905 -0.000419 -133.582001 -2.000000 2.000000 0.000000 45.187199 66.054001 -127.665001 -77.803299 0.243733 0.133638 -0.086952 -0.096891 -99.773499 -13.916808 11.674581 -14.884758 39.067776 3.337888 2.534782 -16.593828 17.490154 4.658323 -7.264359 4.257181 11.904743 27.589376 -3.316438 -1.925442 -14.369405 -17.178673 -5.896335 
6.859202 42.792732 -0.127496 -2.412770 -7.415370 1.336880 -18.626600 -2.843220 8.756470 19.603701 -6.239380 3.823660 3.315680 14.574300 -8.547020 9.004780 9.505150 -3.108210 2.000000 -2.000000 0.000000 107.908997 -170.141998 6.488270 48.955502 -0.304624 0.103167 0.044905 -0.000419 -133.582001 -2.000000 2.000000 0.000000 40.124298 66.932404 -133.574005 -78.574699 0.241932 0.134014 -0.086458 -0.096236 -100.066002 -12.909328 11.878046 -14.920966 38.010578 3.396582 2.458072 -16.182796 18.036364 4.791955 -6.862450 4.441409 11.978830 27.481501 -3.313842 -1.925956 -14.384778 -16.956001 -5.801851 
6.484646 42.859371 -0.033481 -2.687680 -7.277230 1.024020 -18.703800 -2.849940 8.570940 19.672600 -6.190680 3.727600 3.722840 14.391800 -8.251870 9.092400 9.416150 -3.003700 2.000000 -2.000000 0.000000 107.675003 -171.136993 5.899990 48.779800 -0.304939 0.102891 0.044931 0.000018 -133.425995 -2.000000 2.000000 0.000000 33.564201 67.844002 -141.046005 -78.809097 0.241383 0.134124 -0.085304 -0.084910 -100.760002 -11.911698 12.136401 -14.652752 37.002872 3.460731 2.420301 -15.611808 18.759291 4.910047 -6.463671 4.743249 12.336637 27.377800 -3.351170 -1.905939 -14.479161 -16.845121 -5.723900 
6.110099 42.926010 0.060528 -2.972280 -7.138920 0.711066 -18.780899 -2.856740 8.385260 19.751200 -6.141980 3.620840 4.118670 14.209400 -7.955110 9.180160 9.336870 -2.888820 2.000000 -2.000000 0.000000 107.431000 -172.121994 5.311730 48.604000 -0.305254 0.102615 0.044960 0.000482 -133.259995 -2.000000 2.000000 0.000000 26.520599 68.406403 -148.996994 -79.043503 0.240834 0.134232 -0.084183 -0.093123 -101.443001 -11.071284 12.589084 -14.363792 36.044788 3.490989 2.330689 -14.951823 19.393618 4.869587 -5.995654 5.007109 12.724138 27.208511 -3.359001 -1.880306 -14.593224 -16.749809 -5.671328 
5.750010 43.012127 0.141999 -3.098730 -6.913800 0.412070 -18.974199 -2.944540 8.290290 19.711800 -6.239560 3.558080 4.467280 13.994700 -7.734280 9.247440 9.219020 -2.811700 2.000000 -2.000000 0.000000 107.402000 -173.087997 5.094600 48.496601 -0.305447 0.102445 0.044965 0.000564 -133.229996 -2.000000 2.000000 0.000000 19.184999 68.610100 -157.494995 -78.574699 0.241932 0.134014 -0.083630 -0.092342 -101.785004 -10.432830 12.645037 -14.178692 35.378536 3.563416 2.290255 -14.364549 20.016760 4.903200 -5.682703 5.121983 13.006167 26.952959 -3.353624 -1.871331 -14.493634 -16.585560 -5.532488 
5.389932 43.098110 0.223468 -3.225100 -6.688700 0.121844 -19.157801 -3.041730 8.198400 19.682100 -6.346920 3.494530 4.815990 13.779000 -7.525780 9.324420 9.091300 -2.742390 2.000000 -2.000000 0.000000 107.362999 -174.044998 4.877490 48.398899 -0.305621 0.102290 0.044970 0.000646 -133.201004 -2.000000 2.000000 0.000000 11.845700 68.424400 -166.011993 -78.096199 0.243050 0.133784 -0.083066 -0.091535 -102.137001 -9.846504 12.714116 -14.003942 34.890190 3.624967 2.263741 -13.857433 20.637491 4.907929 -5.429893 5.270164 13.271289 26.726637 -3.350517 -1.863189 -14.376032 -16.403913 -5.403012 
5.026080 43.177132 0.301165 -3.301320 -6.317710 -0.027004 -19.315100 -3.184360 8.068000 19.672300 -6.376200 3.398400 5.151790 13.725200 -7.369690 9.412920 9.060650 -2.682390 2.000000 -2.000000 0.000000 107.391998 -174.688995 4.661110 48.184101 -0.306004 0.101949 0.045009 0.001219 -132.996002 -2.000000 2.000000 0.000000 -175.494003 111.898003 5.549420 -76.856003 0.245939 0.133142 -0.082275 -0.090386 -102.635002 -9.398334 12.670335 -13.740613 34.358051 3.713804 2.206165 -12.901930 21.157003 4.710256 -5.184493 5.254663 13.448527 26.589611 -3.344315 -1.863119 -14.400238 -16.444302 -5.394788 
4.662227 43.256145 0.378865 -3.387330 -5.936950 -0.177446 -19.472900 -3.330220 7.929480 19.652599 -6.395690 3.303210 5.477410 13.671100 -7.217180 9.501400 9.029990 -2.632240 2.000000 -2.000000 0.000000 107.412003 -175.332993 4.444740 47.979000 -0.306368 0.101622 0.045049 0.001791 -132.791000 -2.000000 2.000000 0.000000 177.522995 112.600998 -2.557050 -75.615799 0.248813 0.132437 -0.081495 -0.089230 -103.133003 -8.894573 12.617709 -13.465219 33.786240 3.803873 2.157447 -11.956450 21.634848 4.474656 -4.998838 5.251850 13.627380 26.551048 -3.334019 -1.851488 -14.449897 -16.459322 -5.356531 
4.298184 43.349728 0.442630 -3.414560 -5.566330 -0.245194 -19.686501 -3.477650 7.869880 19.563900 -6.502940 3.246480 5.403670 13.606900 -7.215140 9.422140 9.021600 -2.655180 2.000000 -2.000000 0.000000 107.500000 -175.723007 4.345420 47.617599 -0.307007 0.101043 0.045136 0.002937 -132.380997 -2.000000 2.000000 0.000000 -7.970480 66.663597 170.479996 -73.594299 0.253463 0.131157 -0.081176 -0.088752 -103.337997 -8.564342 12.573598 -13.453157 33.235802 3.878125 2.123210 -10.862911 21.886225 4.183265 -4.836817 5.287013 13.813102 26.467699 -3.370246 -1.850691 -14.431387 -16.648170 -5.301736 
3.934141 43.443317 0.506397 -3.441840 -5.185990 -0.313916 -19.900700 -3.628120 7.802510 19.475201 -6.610160 3.180310 5.340670 13.541700 -7.222000 9.332990 9.013350 -2.679620 2.000000 -2.000000 0.000000 107.587997 -176.104004 4.237160 47.256302 -0.307642 0.100460 0.045233 0.004109 -131.960999 -2.000000 2.000000 0.000000 -13.021400 65.672897 163.955994 -71.572800 0.258066 0.129713 -0.080859 -0.088273 -103.542999 -8.185630 12.550688 -13.412486 32.685585 3.941139 2.075310 -9.829581 22.154381 3.910041 -4.654419 5.306917 14.021538 26.241098 -3.365491 -1.832434 -14.331161 -16.850647 -5.317662 
